<svg xmlns="http://www.w3.org/2000/svg" xmlns:xlink="http://www.w3.org/1999/xlink" width="720pt" height="46pt" viewBox="0.00 0.00 720.00 46.37">
<g id="graph0" class="graph" transform="scale(0.724599 0.724599) rotate(0) translate(4 60)">
<polygon fill="white" stroke="none" points="-4,4 -4,-60 989.65,-60 989.65,4 -4,4"/>
<!-- Input -->
<g id="node1" class="node">
<title>Input</title>
<ellipse fill="lightpink" stroke="lightpink" cx="54.5" cy="-28" rx="54.5" ry="22.63"/>
<text text-anchor="middle" x="54.5" y="-31" font-family="Times,serif" font-size="10.00">Input Image</text>
<text text-anchor="middle" x="54.5" y="-19" font-family="Times,serif" font-size="10.00">(Concatenated)</text>
</g>
<!-- C1 -->
<g id="node2" class="node">
<title>C1</title>
<polygon fill="lightblue" stroke="lightblue" points="239.34,-50 145.01,-50 145.01,-6 239.34,-6 239.34,-50"/>
<text text-anchor="middle" x="192.17" y="-37" font-family="Times,serif" font-size="10.00">Conv1</text>
<text text-anchor="middle" x="192.17" y="-25" font-family="Times,serif" font-size="10.00">Conv2d(6,64,4,2,1)</text>
<text text-anchor="middle" x="192.17" y="-13" font-family="Times,serif" font-size="10.00">LeakyReLU(0.2)</text>
</g>
<!-- Input&#45;&gt;C1 -->
<g id="edge1" class="edge">
<title>Input-&gt;C1</title>
<path fill="none" stroke="black" d="M109.12,-28C116.99,-28 125.11,-28 133.06,-28"/>
<polygon fill="black" stroke="black" points="133.01,-31.5 143.01,-28 133.01,-24.5 133.01,-31.5"/>
</g>
<!-- C2 -->
<g id="node3" class="node">
<title>C2</title>
<polygon fill="lightblue" stroke="lightblue" points="379.67,-56 275.34,-56 275.34,0 379.67,0 379.67,-56"/>
<text text-anchor="middle" x="327.5" y="-43" font-family="Times,serif" font-size="10.00">Conv2</text>
<text text-anchor="middle" x="327.5" y="-31" font-family="Times,serif" font-size="10.00">Conv2d(64,128,4,2,1)</text>
<text text-anchor="middle" x="327.5" y="-19" font-family="Times,serif" font-size="10.00">BatchNorm2d</text>
<text text-anchor="middle" x="327.5" y="-7" font-family="Times,serif" font-size="10.00">LeakyReLU(0.2)</text>
</g>
<!-- C1&#45;&gt;C2 -->
<g id="edge2" class="edge">
<title>C1-&gt;C2</title>
<path fill="none" stroke="black" d="M239.8,-28C247.56,-28 255.72,-28 263.8,-28"/>
<polygon fill="black" stroke="black" points="263.61,-31.5 273.61,-28 263.61,-24.5 263.61,-31.5"/>
</g>
<!-- C3 -->
<g id="node4" class="node">
<title>C3</title>
<polygon fill="lightblue" stroke="lightblue" points="525,-56 415.67,-56 415.67,0 525,0 525,-56"/>
<text text-anchor="middle" x="470.33" y="-43" font-family="Times,serif" font-size="10.00">Conv3</text>
<text text-anchor="middle" x="470.33" y="-31" font-family="Times,serif" font-size="10.00">Conv2d(128,256,4,2,1)</text>
<text text-anchor="middle" x="470.33" y="-19" font-family="Times,serif" font-size="10.00">BatchNorm2d</text>
<text text-anchor="middle" x="470.33" y="-7" font-family="Times,serif" font-size="10.00">LeakyReLU(0.2)</text>
</g>
<!-- C2&#45;&gt;C3 -->
<g id="edge3" class="edge">
<title>C2-&gt;C3</title>
<path fill="none" stroke="black" d="M380.14,-28C387.93,-28 396.05,-28 404.08,-28"/>
<polygon fill="black" stroke="black" points="403.82,-31.5 413.82,-28 403.82,-24.5 403.82,-31.5"/>
</g>
<!-- C4 -->
<g id="node5" class="node">
<title>C4</title>
<polygon fill="lightblue" stroke="lightblue" points="670.33,-56 561,-56 561,0 670.33,0 670.33,-56"/>
<text text-anchor="middle" x="615.66" y="-43" font-family="Times,serif" font-size="10.00">Conv4</text>
<text text-anchor="middle" x="615.66" y="-31" font-family="Times,serif" font-size="10.00">Conv2d(256,512,4,1,1)</text>
<text text-anchor="middle" x="615.66" y="-19" font-family="Times,serif" font-size="10.00">BatchNorm2d</text>
<text text-anchor="middle" x="615.66" y="-7" font-family="Times,serif" font-size="10.00">LeakyReLU(0.2)</text>
</g>
<!-- C3&#45;&gt;C4 -->
<g id="edge4" class="edge">
<title>C3-&gt;C4</title>
<path fill="none" stroke="black" d="M525.11,-28C532.99,-28 541.18,-28 549.27,-28"/>
<polygon fill="black" stroke="black" points="549.07,-31.5 559.07,-28 549.07,-24.5 549.07,-31.5"/>
</g>
<!-- C5 -->
<g id="node6" class="node">
<title>C5</title>
<polygon fill="lightblue" stroke="lightblue" points="805.66,-46 706.33,-46 706.33,-10 805.66,-10 805.66,-46"/>
<text text-anchor="middle" x="755.99" y="-31" font-family="Times,serif" font-size="10.00">Output</text>
<text text-anchor="middle" x="755.99" y="-19" font-family="Times,serif" font-size="10.00">Conv2d(512,1,4,1,1)</text>
</g>
<!-- C4&#45;&gt;C5 -->
<g id="edge5" class="edge">
<title>C4-&gt;C5</title>
<path fill="none" stroke="black" d="M670.54,-28C678.48,-28 686.7,-28 694.76,-28"/>
<polygon fill="black" stroke="black" points="694.49,-31.5 704.49,-28 694.49,-24.5 694.49,-31.5"/>
</g>
<!-- Output_Node -->
<g id="node7" class="node">
<title>Output_Node</title>
<ellipse fill="lightyellow" stroke="lightyellow" cx="913.65" cy="-28" rx="72" ry="22.63"/>
<text text-anchor="middle" x="913.65" y="-31" font-family="Times,serif" font-size="10.00">Discriminator Output</text>
<text text-anchor="middle" x="913.65" y="-19" font-family="Times,serif" font-size="10.00">(Sigmoid)</text>
</g>
<!-- C5&#45;&gt;Output_Node -->
<g id="edge6" class="edge">
<title>C5-&gt;Output_Node</title>
<path fill="none" stroke="black" d="M805.82,-28C813.54,-28 821.71,-28 829.95,-28"/>
<polygon fill="black" stroke="black" points="829.69,-31.5 839.69,-28 829.69,-24.5 829.69,-31.5"/>
</g>
</g>
</svg>