<svg xmlns="http://www.w3.org/2000/svg" xmlns:xlink="http://www.w3.org/1999/xlink" width="570pt" height="743pt" viewBox="0.00 0.00 570.08 742.80">
<g id="graph0" class="graph" transform="scale(1 1) rotate(0) translate(4 738.8)">
<polygon fill="white" stroke="none" points="-4,4 -4,-738.8 566.08,-738.8 566.08,4 -4,4"/>
<g id="clust1" class="cluster">
<title>cluster_data_processing</title>
<polygon fill="lightblue" stroke="lightblue" points="96.08,-501.6 96.08,-726.8 254.08,-726.8 254.08,-501.6 96.08,-501.6"/>
<text text-anchor="middle" x="175.08" y="-710.2" font-family="Times,serif" font-size="14.00">Data Processing</text>
</g>
<g id="clust2" class="cluster">
<title>cluster_model_architecture</title>
<polygon fill="lightgreen" stroke="lightgreen" points="111.08,-300 111.08,-466.4 239.08,-466.4 239.08,-300 111.08,-300"/>
<text text-anchor="middle" x="175.08" y="-449.8" font-family="Times,serif" font-size="14.00">Model Architecture</text>
</g>
<g id="clust3" class="cluster">
<title>cluster_training_loop</title>
<polygon fill="orange" stroke="orange" points="360.08,-210 360.08,-466.8 554.08,-466.8 554.08,-210 360.08,-210"/>
<text text-anchor="middle" x="457.08" y="-450.2" font-family="Times,serif" font-size="14.00">Training Loop</text>
</g>
<g id="clust4" class="cluster">
<title>cluster_evaluation</title>
<polygon fill="pink" stroke="pink" points="354.08,-8 354.08,-175.2 531.08,-175.2 531.08,-8 354.08,-8"/>
<text text-anchor="middle" x="442.58" y="-158.6" font-family="Times,serif" font-size="14.00">Evaluation</text>
</g>
<!-- A -->
<g id="node1" class="node">
<title>A</title>
<polygon fill="lightgrey" stroke="lightgrey" points="218.23,-694 131.92,-694 131.92,-657.2 218.23,-657.2 218.23,-694"/>
<text text-anchor="middle" x="175.08" y="-679.2" font-family="Times,serif" font-size="12.00">Data Ingestion</text>
<text text-anchor="middle" x="175.08" y="-664.8" font-family="Times,serif" font-size="12.00">(Load Images)</text>
</g>
<!-- B -->
<g id="node2" class="node">
<title>B</title>
<polygon fill="lightgrey" stroke="lightgrey" points="246.39,-620.2 103.76,-620.2 103.76,-583.4 246.39,-583.4 246.39,-620.2"/>
<text text-anchor="middle" x="175.08" y="-605.4" font-family="Times,serif" font-size="12.00">Transformations</text>
<text text-anchor="middle" x="175.08" y="-591" font-family="Times,serif" font-size="12.00">(Resize, Crop, Normalize)</text>
</g>
<!-- A&#45;&gt;B -->
<g id="edge1" class="edge">
<title>A-&gt;B</title>
<path fill="none" stroke="black" d="M175.08,-656.85C175.08,-649.29 175.08,-640.26 175.08,-631.78"/>
<polygon fill="black" stroke="black" points="178.58,-631.86 175.08,-621.86 171.58,-631.86 178.58,-631.86"/>
</g>
<!-- C -->
<g id="node3" class="node">
<title>C</title>
<polygon fill="lightgrey" stroke="lightgrey" points="215.56,-546.4 134.59,-546.4 134.59,-509.6 215.56,-509.6 215.56,-546.4"/>
<text text-anchor="middle" x="175.08" y="-531.6" font-family="Times,serif" font-size="12.00">Prepare Input</text>
<text text-anchor="middle" x="175.08" y="-517.2" font-family="Times,serif" font-size="12.00">(Crop, Mask)</text>
</g>
<!-- B&#45;&gt;C -->
<g id="edge2" class="edge">
<title>B-&gt;C</title>
<path fill="none" stroke="black" d="M175.08,-583.05C175.08,-575.49 175.08,-566.46 175.08,-557.98"/>
<polygon fill="black" stroke="black" points="178.58,-558.06 175.08,-548.06 171.58,-558.06 178.58,-558.06"/>
</g>
<!-- D -->
<g id="node4" class="node">
<title>D</title>
<polygon fill="lightgrey" stroke="lightgrey" points="221.56,-433.6 128.59,-433.6 128.59,-397.6 221.56,-397.6 221.56,-433.6"/>
<text text-anchor="middle" x="175.08" y="-412" font-family="Times,serif" font-size="12.00">UNet Generator</text>
</g>
<!-- C&#45;&gt;D -->
<g id="edge7" class="edge">
<title>C-&gt;D</title>
<path fill="none" stroke="black" d="M175.08,-509.26C175.08,-492.02 175.08,-465.54 175.08,-445.3"/>
<polygon fill="black" stroke="black" points="178.58,-445.44 175.08,-435.44 171.58,-445.44 178.58,-445.44"/>
<text text-anchor="middle" x="229.5" y="-479" font-family="Times,serif" font-size="14.00">Input for Generator</text>
</g>
<!-- E -->
<g id="node5" class="node">
<title>E</title>
<polygon fill="lightgrey" stroke="lightgrey" points="231.23,-344 118.92,-344 118.92,-308 231.23,-308 231.23,-344"/>
<text text-anchor="middle" x="175.08" y="-322.4" font-family="Times,serif" font-size="12.00">Patch Discriminator</text>
</g>
<!-- D&#45;&gt;E -->
<g id="edge3" class="edge">
<title>D-&gt;E</title>
<path fill="none" stroke="black" d="M175.08,-397.29C175.08,-385.42 175.08,-369.37 175.08,-355.61"/>
<polygon fill="black" stroke="black" points="178.58,-355.78 175.08,-345.78 171.58,-355.78 178.58,-355.78"/>
</g>
<!-- F -->
<g id="node6" class="node">
<title>F</title>
<polygon fill="lightgrey" stroke="lightgrey" points="448.57,-434 367.58,-434 367.58,-397.2 448.57,-397.2 448.57,-434"/>
<text text-anchor="middle" x="408.08" y="-419.2" font-family="Times,serif" font-size="12.00">Forward Pass</text>
<text text-anchor="middle" x="408.08" y="-404.8" font-family="Times,serif" font-size="12.00">(Generator)</text>
</g>
<!-- D&#45;&gt;F -->
<g id="edge8" class="edge">
<title>D-&gt;F</title>
<path fill="none" stroke="black" d="M221.95,-415.6C260.65,-415.6 315.55,-415.6 355.7,-415.6"/>
<polygon fill="black" stroke="black" points="355.61,-419.1 365.61,-415.6 355.61,-412.1 355.61,-419.1"/>
<text text-anchor="middle" x="294.57" y="-422.8" font-family="Times,serif" font-size="14.00">Generate Image</text>
</g>
<!-- G -->
<g id="node7" class="node">
<title>G</title>
<polygon fill="lightgrey" stroke="lightgrey" points="545.73,-344.4 368.42,-344.4 368.42,-307.6 545.73,-307.6 545.73,-344.4"/>
<text text-anchor="middle" x="457.08" y="-329.6" font-family="Times,serif" font-size="12.00">Compute Losses</text>
<text text-anchor="middle" x="457.08" y="-315.2" font-family="Times,serif" font-size="12.00">(GAN, Recon, SSIM, Perceptual)</text>
</g>
<!-- E&#45;&gt;G -->
<g id="edge10" class="edge">
<title>E-&gt;G</title>
<path fill="none" stroke="black" d="M231.46,-326C267.24,-326 314.55,-326 356.61,-326"/>
<polygon fill="black" stroke="black" points="356.52,-329.5 366.52,-326 356.52,-322.5 356.52,-329.5"/>
<text text-anchor="middle" x="299.83" y="-333.2" font-family="Times,serif" font-size="14.00">Discriminator Output</text>
</g>
<!-- F&#45;&gt;E -->
<g id="edge9" class="edge">
<title>F-&gt;E</title>
<path fill="none" stroke="black" d="M367.46,-399.47C350.68,-393.21 331.03,-385.87 313.26,-379.2 286.5,-369.15 256.83,-357.95 231.87,-348.51"/>
<polygon fill="black" stroke="black" points="233.13,-345.24 222.54,-344.98 230.65,-351.79 233.13,-345.24"/>
<text text-anchor="middle" x="368.67" y="-366.6" font-family="Times,serif" font-size="14.00">Discriminator Input</text>
</g>
<!-- F&#45;&gt;G -->
<g id="edge4" class="edge">
<title>F-&gt;G</title>
<path fill="none" stroke="black" d="M417.99,-396.87C424.77,-384.76 433.88,-368.47 441.6,-354.66"/>
<polygon fill="black" stroke="black" points="444.61,-356.46 446.44,-346.02 438.5,-353.04 444.61,-356.46"/>
</g>
<!-- H -->
<g id="node8" class="node">
<title>H</title>
<polygon fill="lightgrey" stroke="lightgrey" points="469.89,-254.8 368.26,-254.8 368.26,-218 469.89,-218 469.89,-254.8"/>
<text text-anchor="middle" x="419.08" y="-240" font-family="Times,serif" font-size="12.00">Backpropagation</text>
<text text-anchor="middle" x="419.08" y="-225.6" font-family="Times,serif" font-size="12.00">(Update Weights)</text>
</g>
<!-- G&#45;&gt;H -->
<g id="edge5" class="edge">
<title>G-&gt;H</title>
<path fill="none" stroke="black" d="M431.32,-307.3C425.96,-302.25 421.04,-296.29 418.08,-289.6 414.91,-282.45 413.99,-274.18 414.16,-266.37"/>
<polygon fill="black" stroke="black" points="417.64,-266.83 414.99,-256.57 410.66,-266.24 417.64,-266.83"/>
</g>
<!-- G&#45;&gt;H -->
<g id="edge11" class="edge">
<title>G-&gt;H</title>
<path fill="none" stroke="black" d="M449.39,-307.27C444.18,-295.28 437.2,-279.19 431.25,-265.47"/>
<polygon fill="black" stroke="black" points="434.55,-264.27 427.36,-256.49 428.12,-267.06 434.55,-264.27"/>
<text text-anchor="middle" x="496.11" y="-277" font-family="Times,serif" font-size="14.00">Compute Gradients</text>
</g>
<!-- H&#45;&gt;D -->
<g id="edge12" class="edge">
<title>H-&gt;D</title>
<path fill="none" stroke="black" d="M367.88,-237.32C268.62,-238.38 55.74,-246.94 10.18,-300 -28.17,-344.67 55.82,-380.27 117.44,-399.33"/>
<polygon fill="black" stroke="black" points="116.23,-402.62 126.81,-402.15 118.24,-395.92 116.23,-402.62"/>
<text text-anchor="middle" x="60.13" y="-321.8" font-family="Times,serif" font-size="14.00">Update Generator</text>
</g>
<!-- H&#45;&gt;E -->
<g id="edge13" class="edge">
<title>H-&gt;E</title>
<path fill="none" stroke="black" d="M367.88,-249.16C343.51,-255.29 314.13,-263.46 288.39,-272.8 264.87,-281.33 239.52,-292.79 218.76,-302.8"/>
<polygon fill="black" stroke="black" points="217.48,-299.53 210.03,-307.06 220.55,-305.82 217.48,-299.53"/>
<text text-anchor="middle" x="349.23" y="-277" font-family="Times,serif" font-size="14.00">Update Discriminator</text>
</g>
<!-- I -->
<g id="node9" class="node">
<title>I</title>
<polygon fill="lightgrey" stroke="lightgrey" points="475.76,-142.4 362.4,-142.4 362.4,-105.6 475.76,-105.6 475.76,-142.4"/>
<text text-anchor="middle" x="419.08" y="-127.6" font-family="Times,serif" font-size="12.00">Compute Metrics</text>
<text text-anchor="middle" x="419.08" y="-113.2" font-family="Times,serif" font-size="12.00">(PSNR, SSIM, FID)</text>
</g>
<!-- H&#45;&gt;I -->
<g id="edge14" class="edge">
<title>H-&gt;I</title>
<path fill="none" stroke="black" d="M419.08,-217.66C419.08,-200.52 419.08,-174.25 419.08,-154.06"/>
<polygon fill="black" stroke="black" points="422.58,-154.21 419.08,-144.21 415.58,-154.21 422.58,-154.21"/>
<text text-anchor="middle" x="481.07" y="-187.4" font-family="Times,serif" font-size="14.00">Evaluate Performance</text>
</g>
<!-- J -->
<g id="node10" class="node">
<title>J</title>
<polygon fill="lightgrey" stroke="lightgrey" points="463.73,-52.8 362.42,-52.8 362.42,-16 463.73,-16 463.73,-52.8"/>
<text text-anchor="middle" x="413.08" y="-38" font-family="Times,serif" font-size="12.00">Save Results</text>
<text text-anchor="middle" x="413.08" y="-23.6" font-family="Times,serif" font-size="12.00">(Images, Metrics)</text>
</g>
<!-- I&#45;&gt;J -->
<g id="edge6" class="edge">
<title>I-&gt;J</title>
<path fill="none" stroke="black" d="M383.74,-105.28C377.44,-100.45 371.72,-94.57 368.08,-87.6 363.08,-78.06 367.16,-68.77 374.55,-60.75"/>
<polygon fill="black" stroke="black" points="376.7,-63.53 381.72,-54.19 371.98,-58.36 376.7,-63.53"/>
</g>
<!-- I&#45;&gt;J -->
<g id="edge15" class="edge">
<title>I-&gt;J</title>
<path fill="none" stroke="black" d="M417.86,-105.27C417.06,-93.52 415.98,-77.82 415.05,-64.29"/>
<polygon fill="black" stroke="black" points="418.57,-64.35 414.39,-54.61 411.58,-64.83 418.57,-64.35"/>
<text text-anchor="middle" x="484.66" y="-75" font-family="Times,serif" font-size="14.00">Save Evaluation Results</text>
</g>
</g>
</svg>